<svg id="Calque_1" data-name="Calque 1" xmlns="http://www.w3.org/2000/svg" viewBox="0 0 76.15 76.98"><defs><style>.cls-1{fill:#ba5252;}.cls-2{fill:#4e4d4d;}</style></defs><path class="cls-1" d="M62.49,9a22.47,22.47,0,0,1,2.62,2.12A14.92,14.92,0,0,0,62.49,9Z" transform="translate(-7.42 -3.77)"/><path class="cls-1" d="M71.91,21.73a26.13,26.13,0,0,0-5.45-9.23c-.39-.43-.8-.84-1.22-1.22l-.13-.13A22.47,22.47,0,0,0,62.49,9a28,28,0,0,0-5.27-2.89A33.24,33.24,0,0,0,44.16,3.77,23.73,23.73,0,0,0,33.85,6.1a27.85,27.85,0,0,0-8.59,6.27,29.76,29.76,0,0,0-5.84,9.19,29,29,0,0,0-2.15,11.17,33.13,33.13,0,0,0,2,11.86A26.69,26.69,0,0,0,25,53.74a24.71,24.71,0,0,0,8.72,5.88,29.27,29.27,0,0,0,11.17,2.07,32,32,0,0,0,11.3-2A26,26,0,0,0,71.48,44.89a31.38,31.38,0,0,0,2.24-12.16A33.39,33.39,0,0,0,71.91,21.73Zm-8.69-2.16a16.45,16.45,0,0,1,1.44,4.55,15.23,15.23,0,0,1,0,5.3c0,.17-.07.34-.1.51a11.58,11.58,0,0,1-1.54,3.72,9.9,9.9,0,0,1-3,3A10.74,10.74,0,0,1,56,38.18a9.82,9.82,0,0,1-4.3-.19A9.31,9.31,0,0,1,48,36a11.85,11.85,0,0,1-2.76-3.53,16.21,16.21,0,0,1-1.58-4.9,14.21,14.21,0,0,1,0-4.87,13.34,13.34,0,0,1,1.53-4.26A10.75,10.75,0,0,1,48,15.29a8.2,8.2,0,0,1,3.67-1.62,11.28,11.28,0,0,1,5,.2,10.41,10.41,0,0,1,2,.8A9.29,9.29,0,0,1,60.54,16,11.76,11.76,0,0,1,63.22,19.57Zm.49,25.62A19.85,19.85,0,0,1,60,51.72,17.14,17.14,0,0,1,54.21,56a17.4,17.4,0,0,1-7.39,1.54A17.37,17.37,0,0,1,38,55.33a19.25,19.25,0,0,1-6.48-6.23,31,31,0,0,1-4-9.45,48.63,48.63,0,0,1-1.38-11.82,22.87,22.87,0,0,1,1.47-8.5,18.63,18.63,0,0,1,3.91-6.23,16.65,16.65,0,0,1,5.67-3.87A17.39,17.39,0,0,1,43.9,7.9a21.42,21.42,0,0,1,2.93.19c-.36.19-.71.4-1.06.63a17,17,0,0,0-4.66,4.64,20.53,20.53,0,0,0-2.86,6.45,21.79,21.79,0,0,0-.59,7.56,25.07,25.07,0,0,0,1.89,7.81A18.45,18.45,0,0,0,43.42,41a14.74,14.74,0,0,0,5.46,3.47,15.46,15.46,0,0,0,6.66.79A16.6,16.6,0,0,0,62,43.33a15.19,15.19,0,0,0,2.62-1.76A23.42,23.42,0,0,1,63.71,45.19Z" transform="translate(-7.42 -3.77)"/><path class="cls-2" d="M15.26,80.5c-.44.08-.88.14-1.34.18s-1,.07-1.6.07a5.76,5.76,0,0,1-2.17-.38,4.39,4.39,0,0,1-1.53-1,4.29,4.29,0,0,1-.91-1.55,6.31,6.31,0,0,1-.29-1.94,5.57,5.57,0,0,1,.29-1.74,4.83,4.83,0,0,1,.9-1.57A4.67,4.67,0,0,1,12.27,71l.83,0c.27,0,.53,0,.79.08l.79.14c.27,0,.56.12.87.2a9.86,9.86,0,0,0,.11,1,9.63,9.63,0,0,0,.21,1.07.24.24,0,0,1-.12,0H15.6a.27.27,0,0,1-.29-.18,2.34,2.34,0,0,0-.88-1.4,3.2,3.2,0,0,0-1.79-.42,3.87,3.87,0,0,0-1.62.31,3.19,3.19,0,0,0-1.16.83A3.65,3.65,0,0,0,9.17,74a5.41,5.41,0,0,0-.23,1.59,5.48,5.48,0,0,0,.3,1.85,4.74,4.74,0,0,0,.81,1.45,3.58,3.58,0,0,0,1.22.94,3.43,3.43,0,0,0,1.53.34,6.07,6.07,0,0,0,.85-.06,4.48,4.48,0,0,0,.72-.15V77.71a.6.6,0,0,0-.23-.54,2.07,2.07,0,0,0-.79-.23.2.2,0,0,1-.16-.1.59.59,0,0,1,0-.17,1,1,0,0,1,0-.24l.93,0,.89,0,.86,0,.85,0a1.29,1.29,0,0,1,0,.24.29.29,0,0,1,0,.19.24.24,0,0,1-.13.07,1.43,1.43,0,0,0-.64.19.52.52,0,0,0-.18.43v2.59a.3.3,0,0,1-.08.21A.74.74,0,0,1,15.26,80.5Z" transform="translate(-7.42 -3.77)"/><path class="cls-2" d="M23,77.12H19.8l-.93,2.33a.79.79,0,0,0-.07.29c0,.21.29.35.88.44a.18.18,0,0,1,.14.08.24.24,0,0,1,0,.15,1.11,1.11,0,0,1,0,.23l-.83,0-.86,0-.59,0-.64,0a.85.85,0,0,1,0-.23.31.31,0,0,1,0-.17.17.17,0,0,1,.15-.09,2.81,2.81,0,0,0,.68-.18.66.66,0,0,0,.32-.34l3.5-8.42c.07-.17.16-.25.28-.25L22,71l3.51,8.68a.64.64,0,0,0,.4.32,2.74,2.74,0,0,0,.59.16.37.37,0,0,1,.14.08.26.26,0,0,1,.05.18,1.11,1.11,0,0,1,0,.23l-.91,0-.85,0-.92,0-.95,0a1.11,1.11,0,0,1,0-.23.26.26,0,0,1,.05-.18.19.19,0,0,1,.1,0,3.06,3.06,0,0,0,.61-.17c.15-.06.23-.15.23-.28a.56.56,0,0,0-.06-.22Zm-.24-.6L21.45,73l-1.4,3.56Z" transform="translate(-7.42 -3.77)"/><path class="cls-2" d="M32.33,75.53a5.19,5.19,0,0,1,.93.21,3.33,3.33,0,0,1,.84.43,2.37,2.37,0,0,1,.61.69,2.06,2.06,0,0,1,.23,1A2.66,2.66,0,0,1,34.7,79a2.36,2.36,0,0,1-.68.86,3.15,3.15,0,0,1-1.07.53,4.56,4.56,0,0,1-1.38.19H29.28l-.56,0-.59,0-.65,0a.17.17,0,0,1,0-.08.19.19,0,0,1,0-.08v-.07c0-.13.05-.21.16-.23a3.11,3.11,0,0,0,.78-.23.39.39,0,0,0,.22-.39V72.17a.43.43,0,0,0-.05-.24.33.33,0,0,0-.17-.16.85.85,0,0,0-.3-.12l-.48-.11c-.11,0-.16-.11-.16-.27a.37.37,0,0,1,0-.12.28.28,0,0,1,0-.09l.94,0,.85,0h1.78a4.74,4.74,0,0,1,1.39.18,2.43,2.43,0,0,1,.93.5,1.78,1.78,0,0,1,.53.73,2.31,2.31,0,0,1,.17.86,1.69,1.69,0,0,1-.13.66,2.39,2.39,0,0,1-.36.59,2.59,2.59,0,0,1-.54.5,2.72,2.72,0,0,1-.71.33Zm-2.14-.18A2.94,2.94,0,0,0,32,74.9a1.74,1.74,0,0,0,.56-1.43A1.54,1.54,0,0,0,32,72.16a3,3,0,0,0-1.84-.43H30v3.62ZM30,79.45a.36.36,0,0,0,.1.27.7.7,0,0,0,.25.15,1.14,1.14,0,0,0,.33.08L31,80a5.09,5.09,0,0,0,1-.09,2,2,0,0,0,.77-.31,1.41,1.41,0,0,0,.5-.58,2.32,2.32,0,0,0,.17-.94,1.84,1.84,0,0,0-.72-1.58,3.19,3.19,0,0,0-2-.54H30Z" transform="translate(-7.42 -3.77)"/><path class="cls-2" d="M39.75,76.33H38.67v3.2A.43.43,0,0,0,39,80a3.9,3.9,0,0,0,.91.19c.11,0,.17.1.17.25a1.12,1.12,0,0,1,0,.24l-1,0-1.09,0-.88,0-.92,0a1.11,1.11,0,0,1,0-.23c0-.13.05-.21.16-.23a2.77,2.77,0,0,0,.77-.21.43.43,0,0,0,.23-.41V72.17a.46.46,0,0,0-.21-.42,2.23,2.23,0,0,0-.82-.21q-.15,0-.15-.24a1.29,1.29,0,0,1,0-.24l.9,0,.89,0h2a3.57,3.57,0,0,1,2.36.68A2.45,2.45,0,0,1,43,74.36a2.51,2.51,0,0,1-.33.68,3.06,3.06,0,0,1-.58.62,2.81,2.81,0,0,1-.84.45l2.43,3.37a1.51,1.51,0,0,0,.61.53,5,5,0,0,0,.62.21c.09,0,.13.09.13.21a1.38,1.38,0,0,1,0,.26l-.81,0c-.32,0-.61,0-.89,0a1,1,0,0,1-.61-.27,3,3,0,0,1-.59-.66Zm-.31-.59A2.55,2.55,0,0,0,41,75.31a1.8,1.8,0,0,0,.55-1.5,3.09,3.09,0,0,0-.11-.83,1.81,1.81,0,0,0-.37-.65,1.78,1.78,0,0,0-.67-.44,2.74,2.74,0,0,0-1-.16h-.73v4Z" transform="translate(-7.42 -3.77)"/><path class="cls-2" d="M48,79.56a.41.41,0,0,0,.2.39,3,3,0,0,0,.76.23c.1,0,.14.1.14.23a1,1,0,0,1,0,.23l-.9,0-.86,0-.86,0-.9,0a1.11,1.11,0,0,1,0-.23c0-.13.05-.21.15-.23a2.53,2.53,0,0,0,.75-.22.42.42,0,0,0,.21-.4V72.17a.44.44,0,0,0-.21-.42,2.31,2.31,0,0,0-.75-.21.14.14,0,0,1-.12-.09.37.37,0,0,1,0-.15,1.29,1.29,0,0,1,0-.24l.91,0,.85,0,.83,0,.93,0a1.15,1.15,0,0,1,0,.24c0,.14,0,.22-.14.24a2.48,2.48,0,0,0-.76.21.46.46,0,0,0-.2.42Z" transform="translate(-7.42 -3.77)"/><path class="cls-2" d="M53,71.73v3.72h2.26a.43.43,0,0,0,.41-.29,2.59,2.59,0,0,0,.2-.69.24.24,0,0,1,.26-.18h.12l.11,0c0,.21,0,.45-.05.72s0,.51,0,.72,0,.36,0,.6,0,.5.05.8l-.21,0c-.16,0-.25-.06-.28-.18a2.59,2.59,0,0,0-.2-.69.43.43,0,0,0-.41-.29H53v3.43c0,.2.13.34.39.4A5.47,5.47,0,0,0,54.7,80h.8a1.83,1.83,0,0,0,.73-.13,1.79,1.79,0,0,0,.55-.33,2.32,2.32,0,0,0,.43-.5,5.6,5.6,0,0,0,.36-.64c0-.07.11-.1.22-.1a.28.28,0,0,1,.15,0l.16.09a3,3,0,0,0-.23.66c-.06.26-.12.5-.18.73s-.12.43-.18.6-.14.24-.24.24h-.33l-.48,0-.51,0-.45,0H52.32l-.9,0-.92,0a1.11,1.11,0,0,1,0-.23c0-.13.05-.21.15-.23a3.3,3.3,0,0,0,.79-.22.41.41,0,0,0,.24-.4V72.17a.4.4,0,0,0-.21-.4,3.16,3.16,0,0,0-.82-.23q-.15,0-.15-.24s0-.09,0-.13,0-.07,0-.11l1,.06.75,0h2.86c.44,0,.82,0,1.14,0l.64,0c.12,0,.21.08.25.24a5.28,5.28,0,0,1,.11.57c0,.22.06.46.1.71a1.67,1.67,0,0,0,.22.64.43.43,0,0,1-.26.09.25.25,0,0,1-.25-.13c-.12-.25-.23-.47-.33-.65a1.8,1.8,0,0,0-.37-.44,1.37,1.37,0,0,0-.51-.26,2.63,2.63,0,0,0-.74-.09Z" transform="translate(-7.42 -3.77)"/><path class="cls-2" d="M61.8,79.53a.34.34,0,0,0,.22.34,1.35,1.35,0,0,0,.59.11h1.58a2.24,2.24,0,0,0,.73-.11,1.5,1.5,0,0,0,.52-.31,2,2,0,0,0,.39-.51,3.46,3.46,0,0,0,.29-.67.17.17,0,0,1,.18-.12.42.42,0,0,1,.15,0l.17.08c-.07.29-.13.6-.2.92s-.12.69-.16,1.1a.25.25,0,0,1-.09.2.34.34,0,0,1-.18,0l-.61,0a5.48,5.48,0,0,0-.65,0H61.1l-.84,0-1,0a1.11,1.11,0,0,1,0-.23c0-.13.05-.21.14-.23a2.68,2.68,0,0,0,.82-.23.41.41,0,0,0,.21-.38v-7.4a.44.44,0,0,0-.2-.42,2.56,2.56,0,0,0-.78-.21.13.13,0,0,1-.11-.08.24.24,0,0,1,0-.15,1.29,1.29,0,0,1,0-.25l1,0,.82,0,1,0,1,0a1.29,1.29,0,0,1,0,.24c0,.16-.06.25-.16.26a2.65,2.65,0,0,0-.92.21.5.5,0,0,0-.3.5Z" transform="translate(-7.42 -3.77)"/><path class="cls-2" d="M70.39,79.53a.34.34,0,0,0,.21.34,1.43,1.43,0,0,0,.6.11h1.58a2.29,2.29,0,0,0,.73-.11,1.6,1.6,0,0,0,.52-.31,2.26,2.26,0,0,0,.38-.51,3.46,3.46,0,0,0,.3-.67.17.17,0,0,1,.18-.12.48.48,0,0,1,.15,0l.17.08c-.07.29-.14.6-.2.92s-.12.69-.17,1.1a.29.29,0,0,1-.08.2.34.34,0,0,1-.18,0l-.62,0a5.21,5.21,0,0,0-.64,0H69.69l-.84,0-1,0a1.11,1.11,0,0,1,0-.23c0-.13,0-.21.15-.23A2.51,2.51,0,0,0,68.8,80a.4.4,0,0,0,.22-.38v-7.4a.46.46,0,0,0-.2-.42,2.56,2.56,0,0,0-.79-.21.17.17,0,0,1-.11-.08.33.33,0,0,1,0-.15,1.29,1.29,0,0,1,0-.25l1,0,.81,0,1,0,1,0a1.15,1.15,0,0,1,0,.24c0,.16-.05.25-.15.26a2.78,2.78,0,0,0-.93.21.49.49,0,0,0-.29.5Z" transform="translate(-7.42 -3.77)"/><path class="cls-2" d="M78.49,71.73v3.72h2.26a.43.43,0,0,0,.41-.29,2.59,2.59,0,0,0,.2-.69.24.24,0,0,1,.26-.18h.12l.11,0c0,.21,0,.45,0,.72s0,.51,0,.72,0,.36,0,.6,0,.5,0,.8l-.21,0c-.16,0-.25-.06-.28-.18a2.59,2.59,0,0,0-.2-.69.43.43,0,0,0-.41-.29H78.49v3.43c0,.2.13.34.39.4a5.47,5.47,0,0,0,1.29.11H81a1.83,1.83,0,0,0,.73-.13,1.79,1.79,0,0,0,.55-.33,2.32,2.32,0,0,0,.43-.5,5.6,5.6,0,0,0,.36-.64c0-.07.11-.1.22-.1a.34.34,0,0,1,.16,0l.15.09a3.59,3.59,0,0,0-.23.66c-.06.26-.12.5-.18.73s-.12.43-.18.6-.14.24-.24.24h-.33l-.48,0-.51,0-.45,0H77.79l-.9,0-.92,0c0-.09,0-.17,0-.23s0-.21.14-.23a3.3,3.3,0,0,0,.79-.22.41.41,0,0,0,.24-.4V72.17a.4.4,0,0,0-.21-.4,3.16,3.16,0,0,0-.82-.23c-.1,0-.14-.1-.14-.24v-.13s0-.07,0-.11l1,.06.75,0h2.87c.43,0,.81,0,1.13,0l.64,0c.12,0,.21.08.25.24a5.28,5.28,0,0,1,.11.57c0,.22.06.46.1.71a1.67,1.67,0,0,0,.22.64.43.43,0,0,1-.26.09.25.25,0,0,1-.25-.13c-.12-.25-.23-.47-.33-.65a1.8,1.8,0,0,0-.37-.44,1.37,1.37,0,0,0-.51-.26,2.55,2.55,0,0,0-.73-.09Z" transform="translate(-7.42 -3.77)"/></svg>